<svg xmlns="http://www.w3.org/2000/svg" xmlns:xlink="http://www.w3.org/1999/xlink" width="241" height="43" viewBox="0 0 241 43">
  <defs>
    <clipPath id="clip-path">
      <rect id="長方形_5409" data-name="長方形 5409" width="27" height="27" transform="translate(-0.19)" fill="none"/>
    </clipPath>
  </defs>
  <g id="グループ_1784" data-name="グループ 1784" transform="translate(2076 6859)">
    <g id="長方形_5410" data-name="長方形 5410" transform="translate(-2076 -6859)" fill="#fff" stroke="#e607aa" stroke-width="2">
      <rect width="241" height="43" rx="21.5" stroke="none"/>
      <rect x="1" y="1" width="239" height="41" rx="20.5" fill="none"/>
    </g>
    <g id="グループ_1782" data-name="グループ 1782" transform="translate(-6.182 -6)">
      <path id="パス_2961" data-name="パス 2961" d="M-61.18-15.48a41.589,41.589,0,0,0,5.64,7.92,12.311,12.311,0,0,1,2-2.08,26.882,26.882,0,0,1-5.26-6.82ZM-66.8-16.5a17.1,17.1,0,0,1-4.98,7.14A15.464,15.464,0,0,1-69.5-7.58a24.349,24.349,0,0,0,5.42-8.14Zm5.96,11.22c.74.98,1.54,2.12,2.26,3.24-2.32.12-4.66.24-6.82.34A75,75,0,0,0-61.84-9l-2.86-.66a48.913,48.913,0,0,1-3.42,8.08l-2.78.1.32,2.5C-67.06.86-62.02.56-57.22.24a13.6,13.6,0,0,1,.82,1.6l2.48-1.3a45.867,45.867,0,0,0-4.6-6.9ZM-45.5-6.64h3.2v-2.3h-8.58v2.3h3.02v4.82c-1.44.24-2.76.44-3.78.6l.66,2.4c2.58-.56,6.1-1.28,9.38-2l-.18-2.12c-1.22.24-2.5.48-3.72.7Zm11.74-4.58v-2.32h-1.88l1.36-1.18a14.938,14.938,0,0,0-2.62-2.22l-1.58,1.3a14.159,14.159,0,0,1,2.34,2.1H-39.3c-.04-1.08-.04-2.2-.02-3.3h-2.56c0,1.1.02,2.22.06,3.3h-9.82v2.32h9.94c.48,7.04,1.98,12.96,5.4,12.96,1.9,0,2.7-.92,3.06-4.7a6.69,6.69,0,0,1-2.08-1.4c-.1,2.54-.34,3.6-.76,3.6-1.46,0-2.68-4.62-3.1-10.46ZM-30.9,0h8.98V-2.48h-6.02V-14.82H-30.9Zm11.56,0h2.96V-14.82h-2.96Zm6.6,0h2.8V-5.94c0-1.7-.22-3.56-.36-5.16h.1l1.5,3.18L-4.42,0h3V-14.82h-2.8V-8.9c0,1.68.24,3.64.38,5.18h-.1l-1.48-3.2-4.3-7.9h-3.02ZM2.24,0h9.3V-2.48H5.2V-6.44h5.2V-8.92H5.2v-3.42h6.12v-2.48H2.24ZM25.08-2.96A19.043,19.043,0,0,1,24.04-.74l.54.12H20.64l.76-.22a8.142,8.142,0,0,0-.96-2.12ZM19.24-6.62h6.82v1.78H19.24Zm7.48,3.66h1.8V-8.5H16.94v5.54h2.18l-1.04.26A9.57,9.57,0,0,1,19-.62H14.16V1.34h17.2V-.62H26.34c.34-.58.74-1.36,1.16-2.18Zm3.26-11.48a17.535,17.535,0,0,1-2.24,2.06c-.32-.32-.64-.66-.94-1.02.88-.6,1.88-1.36,2.74-2.08l-1.8-1.28a16.738,16.738,0,0,1-2,1.9,12.957,12.957,0,0,1-1.06-2.02l-2.04.64a19.314,19.314,0,0,0,2.74,4.62H20.24a13.463,13.463,0,0,0,2.26-3.9l-1.54-.8-.4.1H15.32v1.92h4.1a12.587,12.587,0,0,1-1.5,1.98,12.073,12.073,0,0,0-2.26-1.62l-1.3,1.3a13.933,13.933,0,0,1,2.14,1.68A13.935,13.935,0,0,1,13.12-8.9a8.451,8.451,0,0,1,1.42,1.74,17.583,17.583,0,0,0,4.52-3.16v.68h7.36v-.82A14.219,14.219,0,0,0,30.7-7.44a8.5,8.5,0,0,1,1.58-1.98,14.143,14.143,0,0,1-3.14-1.74,31.2,31.2,0,0,0,2.58-2.04Zm5.82,2.46a18.9,18.9,0,0,0,1.94-2.74,18.6,18.6,0,0,1,2.28,2.74ZM41-2.12l-2.4.42V-6.54h2.48v-2H38.6V-10h2.06v-1.98h-.18l1.26-1.5a19.875,19.875,0,0,0-3.34-3.44H36.44a12.781,12.781,0,0,1-3.46,4.84,6.512,6.512,0,0,1,1.42,1.54c.12-.12.26-.24.38-.36v.9h1.76v1.46H33.82v2h2.72v5.22c-1.1.18-2.1.34-2.94.46l.44,2.16C36.06.92,38.7.36,41.18-.16l-.06-.58L41.78.4c1.14-.78,2.42-1.7,3.6-2.6L44.66-4c-1.3.86-2.62,1.7-3.62,2.28Zm8.66-2.22c.7-.66,1.6-1.6,2.4-2.52L50.2-8a16.7,16.7,0,0,1-1.8,2.4,12.972,12.972,0,0,1-.82-2.14V-8.4H51.9v-2.02H50.42v-5.86h-8.2v1.96h6v1.08H42.66v1.8h5.56v1.02H41.26V-8.4h4.12V-.56c0,.2-.06.26-.28.26-.2,0-.8.02-1.36-.02a8.121,8.121,0,0,1,.56,2.06,5.26,5.26,0,0,0,2.52-.38c.62-.32.76-.88.76-1.88V-3.14A10.069,10.069,0,0,0,50.86.72a8.833,8.833,0,0,1,1.52-1.96,9.221,9.221,0,0,1-3.66-3.72ZM34.02-5.4a18.2,18.2,0,0,1,.62,3.5l1.6-.44a22.844,22.844,0,0,0-.7-3.44Zm6.24,3.1c.3-.82.62-2.1.98-3.22l-1.72-.42a24.523,24.523,0,0,1-.7,3.24Zm1.1-4.4a11.436,11.436,0,0,1,1.96,2.62l1.66-1.1A9.768,9.768,0,0,0,42.92-7.7ZM54.1-13.72l.26,2.74c2.32-.5,6.4-.94,8.28-1.14a8,8,0,0,0-2.98,6.18c0,4.34,3.96,6.58,8.16,6.86l.94-2.74c-3.4-.18-6.48-1.36-6.48-4.66a6.078,6.078,0,0,1,4.24-5.6,20.777,20.777,0,0,1,3.86-.28l-.02-2.56c-1.42.06-3.6.18-5.66.36-3.66.3-6.96.6-8.64.74C55.68-13.78,54.9-13.74,54.1-13.72ZM67.52-10.4l-1.48.62A15.431,15.431,0,0,1,67.6-7l1.52-.68A24.824,24.824,0,0,0,67.52-10.4Zm2.24-.92-1.46.68a17.6,17.6,0,0,1,1.64,2.7l1.5-.72A29.915,29.915,0,0,0,69.76-11.32Z" transform="translate(-1933.477 -6824)" fill="#069842"/>
      <g id="グループ_1781" data-name="グループ 1781" transform="translate(-2037.969 -6845)">
        <g id="グループ_1780" data-name="グループ 1780" clip-path="url(#clip-path)">
          <path id="パス_2955" data-name="パス 2955" d="M20.547,26.528H5.98A5.98,5.98,0,0,1,0,20.547V5.98A5.98,5.98,0,0,1,5.98,0H20.547a5.98,5.98,0,0,1,5.98,5.98V20.547a5.98,5.98,0,0,1-5.98,5.98" fill="#06c755"/>
          <path id="パス_2956" data-name="パス 2956" d="M70.968,65.522c0-3.957-3.967-7.177-8.844-7.177s-8.844,3.22-8.844,7.177c0,3.548,3.147,6.519,7.4,7.081.288.062.68.19.779.436a1.816,1.816,0,0,1,.029.8s-.1.624-.126.757c-.039.223-.178.875.766.477a28.557,28.557,0,0,0,6.949-5.135h0a6.386,6.386,0,0,0,1.9-4.416" transform="translate(-48.862 -53.508)" fill="#fff"/>
          <path id="パス_2957" data-name="パス 2957" d="M201.806,126.054h-2.485a.169.169,0,0,1-.169-.169v0h0v-3.853h0v0a.169.169,0,0,1,.169-.169h2.485a.169.169,0,0,1,.169.169v.627a.169.169,0,0,1-.169.169h-1.689v.651h1.689a.169.169,0,0,1,.169.169v.627a.169.169,0,0,1-.169.169h-1.689v.651h1.689a.169.169,0,0,1,.169.169v.627a.169.169,0,0,1-.169.169" transform="translate(-182.642 -111.754)" fill="#06c755"/>
          <path id="パス_2958" data-name="パス 2958" d="M90.932,126.054a.169.169,0,0,0,.169-.169v-.627a.169.169,0,0,0-.169-.169H89.243v-3.064a.169.169,0,0,0-.169-.169h-.627a.169.169,0,0,0-.169.169v3.857h0v0a.169.169,0,0,0,.169.169h2.485Z" transform="translate(-80.96 -111.754)" fill="#06c755"/>
          <path id="パス_2959" data-name="パス 2959" d="M129.526,121.855H128.9a.169.169,0,0,0-.169.169v3.86a.169.169,0,0,0,.169.169h.627a.169.169,0,0,0,.169-.169v-3.86a.169.169,0,0,0-.169-.169" transform="translate(-118.058 -111.753)" fill="#06c755"/>
          <path id="パス_2960" data-name="パス 2960" d="M151.144,121.855h-.627a.169.169,0,0,0-.169.169v2.293l-1.766-2.385-.014-.017h0l-.01-.011,0,0-.009-.008,0,0-.009-.006-.005,0-.009-.005-.005,0-.01,0-.006,0-.01,0-.006,0-.01,0h-.655a.169.169,0,0,0-.169.169v3.86a.169.169,0,0,0,.169.169h.627a.169.169,0,0,0,.169-.169v-2.292l1.768,2.388a.171.171,0,0,0,.044.043h0l.011.006,0,0,.008,0,.008,0,.005,0,.012,0h0a.172.172,0,0,0,.044.006h.624a.169.169,0,0,0,.169-.169v-3.86a.169.169,0,0,0-.169-.169" transform="translate(-135.406 -111.753)" fill="#06c755"/>
        </g>
      </g>
    </g>
  </g>
</svg>
