<svg xmlns="http://www.w3.org/2000/svg" width="283.762" height="41.72" viewBox="0 0 283.762 41.72">
  <g id="グループ_1757" data-name="グループ 1757" transform="translate(5231.381 7189.412)">
    <path id="合体_31" data-name="合体 31" d="M26.873,36.181a40.377,40.377,0,0,1-3.106-4.531H15.825a15.825,15.825,0,0,1,0-31.65H267.937a15.825,15.825,0,0,1,0,31.65H30.437a18.509,18.509,0,0,0-.033,2.47,20.658,20.658,0,0,0,2.15,7.6A37.243,37.243,0,0,1,26.873,36.181Z" transform="translate(-5231.381 -7189.412)" fill="#ffe240"/>
    <path id="パス_2944" data-name="パス 2944" d="M-123.664-9.184h1.888v-1.424h3.952v1.424h1.9v-1.424h3.152V-12.32h-3.152v-1.216h-1.9v1.216h-3.952v-1.216h-1.888v1.216h-3.12v1.712h3.12Zm.1,4.48V-6.72h2.752v1.44a3.478,3.478,0,0,1-.032.576Zm7.616-2.016V-4.7h-2.88c.016-.176.016-.368.016-.544V-6.72Zm3.36,3.792V-4.7h-1.424V-8.368h-4.8v-1.6h-2v1.6h-4.592V-4.7h-1.536v1.776h5.5c-.752,1.136-2.432,2.112-5.856,2.736a7.821,7.821,0,0,1,1.184,1.616c3.616-.784,5.52-2.016,6.464-3.5,1.344,1.92,3.312,3.024,6.288,3.5a7.551,7.551,0,0,1,1.184-1.76c-2.8-.288-4.784-1.136-5.984-2.592Zm6.72-10.128h-4.512v1.44h4.512Zm.576,2.208h-5.936v1.5h5.936Zm-.576,2.288h-4.608v1.424h4.608ZM-110.48-4.9h4.608v-1.44h-4.608Zm3.088,2.32V-.752h-1.536V-2.576Zm1.632-1.5h-4.768V1.376h1.6V.752h3.168ZM-99.1-2.9V-.912h-3.344V-2.9Zm-5.136,4.288h1.792V.768H-99.1v.56h1.872v-5.92h-7.008Zm4.816-10.128V-7.1h-2.16c.1-.5.192-1.056.288-1.632ZM-97.6-7.1v-3.248h-3.424l.16-1.12h4.08V-13.1H-104.8v1.632h2.08c-.048.368-.112.736-.16,1.12h-1.664v1.616h1.408c-.1.576-.192,1.136-.288,1.632h-1.968V-5.44h9.152V-7.1ZM-92.64-.64-91.12.672A4.13,4.13,0,0,1-90.176.24,20.05,20.05,0,0,0-80.9-5.52l-1.136-1.808a18.333,18.333,0,0,1-8.224,5.3v-8.32a11.7,11.7,0,0,1,.16-1.824h-2.512a10.222,10.222,0,0,1,.176,1.824V-1.68A2.09,2.09,0,0,1-92.64-.64Zm24.224-10.448-1.392.576A14.51,14.51,0,0,1-68.352-7.9l1.44-.624A23.856,23.856,0,0,0-68.416-11.088Zm2.144-.88-1.376.624A16.739,16.739,0,0,1-66.112-8.8l1.392-.672A23.289,23.289,0,0,0-66.272-11.968ZM-79.2-4.56l1.92,1.984c.288-.416.672-.976,1.04-1.488.64-.864,1.776-2.448,2.4-3.248.464-.576.8-.608,1.312-.1.576.592,2,2.144,2.928,3.248.944,1.1,2.3,2.752,3.376,4.08l1.76-1.888C-65.7-3.28-67.328-5.056-68.4-6.192c-.96-1.04-2.192-2.32-3.264-3.328-1.248-1.168-2.192-.992-3.136.128-1.1,1.312-2.352,2.88-3.072,3.616A18.006,18.006,0,0,1-79.2-4.56ZM-55.712-.352l1.344,1.1a3.419,3.419,0,0,1,.688-.48A17.617,17.617,0,0,0-48.256-4.1l-1.232-1.76A10.132,10.132,0,0,1-53.44-2.48v-8.368a8.125,8.125,0,0,1,.112-1.392h-2.384a7.093,7.093,0,0,1,.128,1.376v9.328A6.089,6.089,0,0,1-55.712-.352Zm-7.408-.24L-61.168.7A9.381,9.381,0,0,0-58.32-3.888a35.3,35.3,0,0,0,.48-6.88,10.538,10.538,0,0,1,.112-1.456H-60.08a6.072,6.072,0,0,1,.144,1.472A27.571,27.571,0,0,1-60.4-4.416,7.548,7.548,0,0,1-63.12-.592Zm21.392-12.464h-4.7v1.44h4.7Zm3.776-.432a11.848,11.848,0,0,1-3.264,3.92v-1.344h-6.016v1.5h5.792a3.525,3.525,0,0,1-.512.336,7.652,7.652,0,0,1,.944,1.6A12.6,12.6,0,0,0-37.024-11.7,13.669,13.669,0,0,0-33.04-7.6a10.183,10.183,0,0,1,1.008-1.728,11.425,11.425,0,0,1-4.176-4.16Zm2.336,6.464a11.638,11.638,0,0,1-4.848,3.36,6.618,6.618,0,0,1,1.216,1.312,14.676,14.676,0,0,0,5.3-3.952ZM-37.056-9.3A10.329,10.329,0,0,1-40.512-6.56,7.629,7.629,0,0,1-39.3-5.408,12.4,12.4,0,0,0-35.408-8.64Zm-4.624.608h-4.8v1.456h4.8Zm-4.8,3.616h4.8V-6.5h-4.8Zm3.2,2.288v1.84h-1.648v-1.84Zm1.616-1.5h-4.864V1.168h1.6V.544h3.264Zm7.312-.192c-1.376,2.08-4.016,3.536-6.9,4.272a6.8,6.8,0,0,1,1.184,1.632A13.659,13.659,0,0,0-32.64-3.744Zm7.392-5.2a9.94,9.94,0,0,0-.624-2.7l-1.152.368a10.728,10.728,0,0,1,.544,2.752ZM-16.24-8.3h-4.768v-2.224a25.481,25.481,0,0,0,4.688-1.44l-1.536-1.392a17.265,17.265,0,0,1-3.856,1.376l-1.12-.3v5.552a12.853,12.853,0,0,1-.784,5.04v-.112h-5.456V-4.176A7.6,7.6,0,0,1-28.4-2.7a8.551,8.551,0,0,0,1.568-2.16v2.752h1.552v-3.28c.4.512.8,1.056,1.008,1.392l1.024-1.264c-.3-.3-1.584-1.488-2.032-1.856v-.224h1.92v-1.6h-1.92v-.672l1.056.352c.352-.7.768-1.824,1.168-2.784l-1.488-.352a18.185,18.185,0,0,1-.736,2.736v-3.728h-1.552v4.448h-1.936v1.6h1.776a9.416,9.416,0,0,1-2.08,3.008v-8.672H-30.72V.96h1.648V-.16h4.544c-.08.1-.176.192-.256.288a4.575,4.575,0,0,1,1.36,1.3c2.064-2.208,2.4-5.584,2.416-7.968h1.552v7.92h1.808v-7.92h1.408ZM-.928-5.632a6.093,6.093,0,0,0-6.464-6.24,7.109,7.109,0,0,0-7.344,6.848c0,2.7,1.472,4.656,3.248,4.656,1.744,0,3.12-1.984,4.08-5.216a32.358,32.358,0,0,0,.96-4.336A3.955,3.955,0,0,1-3.088-5.7,4.342,4.342,0,0,1-6.736-1.408a12.306,12.306,0,0,1-1.488.256l1.2,1.9C-2.992.128-.928-2.256-.928-5.632Zm-11.76.4a5.036,5.036,0,0,1,4.064-4.64A24.016,24.016,0,0,1-9.472-6c-.656,2.16-1.28,3.168-1.952,3.168C-12.048-2.832-12.688-3.616-12.688-5.232ZM14.1-7.6l-.352.128H11.216L11.6-8.1c-.368-.176-.848-.352-1.376-.56a26.379,26.379,0,0,0,3.7-3.04l-1.36-1.072-.432.112H2.56v1.744h7.728a16.654,16.654,0,0,1-2.032,1.5c-.9-.336-1.792-.64-2.512-.9L4.8-8.864c1.024.384,2.32.9,3.5,1.392H1.024v1.808h6.32V-.752c0,.24-.1.3-.4.32-.32,0-1.5,0-2.448-.032A6.48,6.48,0,0,1,5.184,1.36a10,10,0,0,0,3.152-.288C9.1.8,9.328.32,9.328-.688V-5.664H12.7A20.223,20.223,0,0,1,11.456-3.7l1.632.944a21.312,21.312,0,0,0,2.56-4.176Zm3.28,3.408A11.633,11.633,0,0,1,16.528-.48a9.4,9.4,0,0,1,1.456.688,14.793,14.793,0,0,0,.96-4.128Zm3.568.352a16.284,16.284,0,0,1,.944,3.088l1.5-.528a18.246,18.246,0,0,0-1.04-3.008Zm4.992-7.008a18.349,18.349,0,0,0,.784-2.288l-1.952-.416a12.74,12.74,0,0,1-2.64,5.328l-.112-.192-1.344.592c.192.336.384.72.56,1.1l-1.616.064a51.509,51.509,0,0,0,3.056-4.336l-1.616-.672A25.018,25.018,0,0,1,19.584-9.04c-.16-.208-.352-.448-.56-.672.576-.9,1.232-2.128,1.808-3.232l-1.68-.592a21.15,21.15,0,0,1-1.168,2.784l-.384-.336-.9,1.312a15.073,15.073,0,0,1,1.92,2.192c-.24.352-.5.688-.736.992L16.7-6.544l.16,1.664,2.368-.16V1.408h1.68V-5.168l.912-.064a8.707,8.707,0,0,1,.224.864l1.44-.672A12.743,12.743,0,0,0,22.24-8.032a12.226,12.226,0,0,1,1.5,1.056A13.182,13.182,0,0,0,25.1-9.04H29.52c-.176,5.456-.416,7.792-.9,8.288a.79.79,0,0,1-.672.272c-.432,0-1.344,0-2.352-.1a4.548,4.548,0,0,1,.64,1.92,15.274,15.274,0,0,0,2.5-.048,1.983,1.983,0,0,0,1.536-.88c.672-.848.9-3.376,1.1-10.384.016-.24.016-.88.016-.88Zm1.808,7.312a15.049,15.049,0,0,0-2.08-3.584l-1.52.768a15.114,15.114,0,0,1,1.952,3.7Zm5.6-7.44.208,2.192c1.856-.4,5.12-.752,6.624-.912a6.4,6.4,0,0,0-2.384,4.944C37.792-1.28,40.96.512,44.32.736l.752-2.192c-2.72-.144-5.184-1.088-5.184-3.728a4.862,4.862,0,0,1,3.392-4.48,16.622,16.622,0,0,1,3.088-.224l-.016-2.048c-1.136.048-2.88.144-4.528.288-2.928.24-5.568.48-6.912.592C34.608-11.024,33.984-10.992,33.344-10.976ZM44.08-8.32l-1.184.5A12.345,12.345,0,0,1,44.144-5.6l1.216-.544A19.859,19.859,0,0,0,44.08-8.32Zm1.792-.736L44.7-8.512a14.076,14.076,0,0,1,1.312,2.16l1.2-.576A23.933,23.933,0,0,0,45.872-9.056Zm9.872-3.76-2.256-.128a8.57,8.57,0,0,1-.016,1.424c-.032.368-.08.8-.128,1.3a15.11,15.11,0,0,1-3.3-.608l-.112,1.84a18.788,18.788,0,0,0,3.184.576c-.08.72-.176,1.472-.272,2.192a14.7,14.7,0,0,1-3.152-.64l-.112,1.936a17.9,17.9,0,0,0,3.072.528c-.064.656-.112,1.232-.112,1.616,0,2.672,1.776,3.76,4.288,3.76,3.5,0,5.68-1.728,5.68-4.144a5.964,5.964,0,0,0-1.552-3.84l-2.256.48a4.364,4.364,0,0,1,1.648,3.1c0,1.312-1.216,2.336-3.456,2.336-1.568,0-2.384-.7-2.384-2.032,0-.288.032-.688.064-1.168h.64c1.008,0,1.936-.064,2.832-.144l.048-1.9a27.717,27.717,0,0,1-3.216.192h-.112c.08-.72.176-1.472.272-2.176a28.836,28.836,0,0,0,3.12-.16l.064-1.9a22.568,22.568,0,0,1-2.928.224c.064-.528.128-.96.176-1.232A14.323,14.323,0,0,1,55.744-12.816Zm13.84-.064-.512,1.92c1.248.32,4.816,1.072,6.432,1.28l.48-1.952A48.972,48.972,0,0,1,69.584-12.88Zm.1,3.216-2.144-.3a59.027,59.027,0,0,1-.8,6.688l1.84.464a3.877,3.877,0,0,1,.592-.928,5.7,5.7,0,0,1,4.448-1.888c1.392,0,2.384.768,2.384,1.808,0,2.032-2.544,3.2-7.344,2.544l.608,2.1c6.656.56,8.96-1.68,8.96-4.592,0-1.936-1.632-3.664-4.432-3.664a7.832,7.832,0,0,0-4.72,1.52C69.184-6.832,69.472-8.784,69.68-9.664Zm15.552-3.312-.3,1.856c1.9.32,4.9.672,6.576.8l.256-1.872C90.1-12.3,87.024-12.64,85.232-12.976ZM92.32-7.888,91.152-9.216a5.128,5.128,0,0,1-.912.176c-1.328.176-4.96.336-5.712.336a14.162,14.162,0,0,1-1.536-.048l.192,2.208c.336-.048.816-.128,1.376-.176.912-.08,2.832-.256,3.952-.288-1.456,1.536-4.736,4.8-5.552,5.632-.432.416-.816.752-1.1.992L83.744.944c1.1-1.408,2.3-2.72,2.848-3.28a1.7,1.7,0,0,1,1.056-.64c.32,0,.672.208.848.768.112.4.3,1.152.464,1.632C89.36.464,90.176.8,91.7.8A23.366,23.366,0,0,0,94.832.56l.128-2.1a16.5,16.5,0,0,1-3.136.288A1.017,1.017,0,0,1,90.7-2c-.144-.416-.32-1.024-.464-1.456a1.519,1.519,0,0,0-.96-1.088,1.756,1.756,0,0,0-.608-.112c.384-.416,1.872-1.792,2.608-2.416C91.568-7.312,91.9-7.6,92.32-7.888Zm9.68,6c0-.4.384-.768.992-.768.864,0,1.456.672,1.552,1.712a8.353,8.353,0,0,1-.928.048C102.656-.9,102-1.3,102-1.888Zm-2.72-10.3.064,2.08c.368-.048.88-.1,1.312-.128.848-.048,3.056-.144,3.872-.16-.784.688-2.448,2.032-3.344,2.768-.944.784-2.88,2.416-4.016,3.328l1.456,1.5c1.712-1.952,3.312-3.248,5.76-3.248,1.888,0,3.328.976,3.328,2.416a2.319,2.319,0,0,1-1.328,2.176,3.2,3.2,0,0,0-3.408-2.736,2.681,2.681,0,0,0-2.864,2.5c0,1.6,1.68,2.624,3.9,2.624,3.872,0,5.792-2,5.792-4.528,0-2.336-2.064-4.032-4.784-4.032a6.25,6.25,0,0,0-1.52.176c1.008-.8,2.688-2.208,3.552-2.816.368-.272.752-.5,1.12-.736l-1.04-1.424a6.991,6.991,0,0,1-1.216.176c-.912.08-4.336.144-5.184.144A11.1,11.1,0,0,1,99.28-12.192Zm19.664,8.08h1.632l.432-5.472.08-2.384h-2.656l.08,2.384ZM119.76.144a1.362,1.362,0,0,0,1.408-1.408,1.366,1.366,0,0,0-1.408-1.424,1.366,1.366,0,0,0-1.408,1.424A1.353,1.353,0,0,0,119.76.144Z" transform="translate(-5087.618 -7167.412)" fill="#00244d"/>
  </g>
</svg>
