<svg xmlns="http://www.w3.org/2000/svg" width="52" height="52" viewBox="0 0 52 52">
  <g id="グループ_1759" data-name="グループ 1759" transform="translate(-402.261 -1216.646)">
    <rect id="長方形_5245" data-name="長方形 5245" width="52" height="52" transform="translate(402.261 1216.646)" fill="#ffd800"/>
    <path id="パス_2935" data-name="パス 2935" d="M-11.515-2A1.854,1.854,0,0,1-13.2-2.72a2.112,2.112,0,0,1,0-1.938l9.523-24.987A2.553,2.553,0,0,1-1.023-31.5h.337a2.553,2.553,0,0,1,2.655,1.854L11.534-4.659a2.061,2.061,0,0,1-.021,1.938A1.91,1.91,0,0,1,9.806-2h-.8A2.53,2.53,0,0,1,6.393-3.9L4.75-8.493H-6.585L-8.229-3.9A2.53,2.53,0,0,1-10.841-2Zm6.531-11H3.191l-4.045-11.5Z" transform="translate(429.097 1259.398)" fill="#00244d"/>
  </g>
</svg>
