<svg xmlns="http://www.w3.org/2000/svg" width="52.197" height="52" viewBox="0 0 52.197 52">
  <g id="グループ_1758" data-name="グループ 1758" transform="translate(-402.261 -867)">
    <rect id="長方形_5245" data-name="長方形 5245" width="52.197" height="52" transform="translate(402.261 867)" fill="#00244d"/>
    <path id="パス_2936" data-name="パス 2936" d="M-1.679-3.088A12.793,12.793,0,0,1-8.427-4.88a12.289,12.289,0,0,1-4.638-5.076,16.771,16.771,0,0,1-1.672-7.7A16.864,16.864,0,0,1-13.065-25.4a12.425,12.425,0,0,1,4.638-5.1A12.685,12.685,0,0,1-1.679-32.31,12.481,12.481,0,0,1,5.029-30.5a12.656,12.656,0,0,1,4.618,5.1,16.7,16.7,0,0,1,1.692,7.743,18.693,18.693,0,0,1-.418,4.041,14.992,14.992,0,0,1-1.214,3.484L12.056-8.3a2.042,2.042,0,0,1,.438,3.265q-1.513,1.911-3.225.557L6.92-6.313A11.852,11.852,0,0,1,3.078-3.924,13.126,13.126,0,0,1-1.679-3.088Zm0-4.459A7.494,7.494,0,0,0,.948-8.005a7.419,7.419,0,0,0,2.19-1.254L1.227-10.732a2.122,2.122,0,0,1-.438-3.3q1.433-1.792,2.946-.677l2.03,1.632a12.721,12.721,0,0,0,.557-2.15,14.282,14.282,0,0,0,.2-2.429,13.112,13.112,0,0,0-1.015-5.355A8.193,8.193,0,0,0,2.66-26.557a7.492,7.492,0,0,0-4.339-1.254,7.61,7.61,0,0,0-4.339,1.254,8.085,8.085,0,0,0-2.886,3.543A13.112,13.112,0,0,0-9.92-17.659a13.005,13.005,0,0,0,1.015,5.315A8.085,8.085,0,0,0-6.019-8.8,7.61,7.61,0,0,0-1.679-7.547Z" transform="translate(429.174 911.717)" fill="#fff"/>
  </g>
</svg>
