<svg xmlns="http://www.w3.org/2000/svg" width="299.002" height="62.001" viewBox="0 0 299.002 62.001">
  <g id="グループ_1501" data-name="グループ 1501" transform="translate(-778.501 -6232)">
    <path id="合体_25" data-name="合体 25" d="M142,54h14.094l-7.047,8ZM27,54A27,27,0,1,1,27,0H272a27,27,0,0,1,0,54Z" transform="translate(778.502 6232.001)" fill="#00244d"/>
    <path id="パス_2945" data-name="パス 2945" d="M-50.77-11.48h2.36v-1.78h4.94v1.78h2.38v-1.78h3.94V-15.4h-3.94v-1.52h-2.38v1.52h-4.94v-1.52h-2.36v1.52h-3.9v2.14h3.9Zm.12,5.6V-8.4h3.44v1.8a4.347,4.347,0,0,1-.04.72Zm9.52-2.52v2.52h-3.6c.02-.22.02-.46.02-.68V-8.4Zm4.2,4.74V-5.88h-1.78v-4.58h-6v-2h-2.5v2h-5.74v4.58h-1.92v2.22h6.88c-.94,1.42-3.04,2.64-7.32,3.42a9.777,9.777,0,0,1,1.48,2.02c4.52-.98,6.9-2.52,8.08-4.38,1.68,2.4,4.14,3.78,7.86,4.38a9.438,9.438,0,0,1,1.48-2.2c-3.5-.36-5.98-1.42-7.48-3.24Zm8.4-12.66h-5.64v1.8h5.64Zm.72,2.76h-7.42v1.88h7.42Zm-.72,2.86h-5.76v1.78h5.76Zm-5.76,4.58h5.76v-1.8h-5.76Zm3.86,2.9V-.94h-1.92V-3.22Zm2.04-1.88h-5.96V1.72h2V.94h3.96Zm8.32,1.48v2.48h-4.18V-3.62Zm-6.42,5.36h2.24V.96h4.18v.7h2.34v-7.4h-8.76Zm6.02-12.66v2.04h-2.7c.12-.62.24-1.32.36-2.04Zm2.28,2.04v-4.06h-4.28l.2-1.4h5.1v-2.04H-27.19v2.04h2.6c-.06.46-.14.92-.2,1.4h-2.08v2.02h1.76c-.12.72-.24,1.42-.36,2.04h-2.46V-6.8h11.44V-8.88Zm6.2,8.08,1.9,1.64A5.162,5.162,0,0,1-8.91.3C-4.19-1.24-.05-3.62,2.69-6.9L1.27-9.16A22.917,22.917,0,0,1-9.01-2.54v-10.4a14.629,14.629,0,0,1,.2-2.28h-3.14a12.778,12.778,0,0,1,.22,2.28V-2.1A2.612,2.612,0,0,1-11.99-.8ZM18.29-13.86l-1.74.72a18.137,18.137,0,0,1,1.82,3.26l1.8-.78A29.819,29.819,0,0,0,18.29-13.86Zm2.68-1.1-1.72.78A20.924,20.924,0,0,1,21.17-11l1.74-.84A29.111,29.111,0,0,0,20.97-14.96ZM4.81-5.7l2.4,2.48c.36-.52.84-1.22,1.3-1.86.8-1.08,2.22-3.06,3-4.06.58-.72,1-.76,1.64-.12.72.74,2.5,2.68,3.66,4.06,1.18,1.38,2.88,3.44,4.22,5.1l2.2-2.36c-1.54-1.64-3.58-3.86-4.92-5.28-1.2-1.3-2.74-2.9-4.08-4.16-1.56-1.46-2.74-1.24-3.92.16C8.93-10.1,7.37-8.14,6.47-7.22A22.508,22.508,0,0,1,4.81-5.7ZM34.17-.44,35.85.94a4.273,4.273,0,0,1,.86-.6,22.021,22.021,0,0,0,6.78-5.46l-1.54-2.2A12.665,12.665,0,0,1,37.01-3.1V-13.56a10.156,10.156,0,0,1,.14-1.74H34.17a8.866,8.866,0,0,1,.16,1.72V-1.92A7.611,7.611,0,0,1,34.17-.44Zm-9.26-.3L27.35.88a11.727,11.727,0,0,0,3.56-5.74,44.128,44.128,0,0,0,.6-8.6,13.173,13.173,0,0,1,.14-1.82H28.71a7.59,7.59,0,0,1,.18,1.84c0,2.42-.02,6.2-.58,7.92A9.435,9.435,0,0,1,24.91-.74ZM45.75,0h8.9V-2.38H51.87V-14.82H49.69a9.233,9.233,0,0,1-3.44,1.26v1.82h2.68v9.36H45.75Z" transform="translate(928.501 6267.001)" fill="#fff"/>
  </g>
</svg>
