<svg xmlns="http://www.w3.org/2000/svg" width="77.695" height="34.465" viewBox="0 0 77.695 34.465">
  <g id="グループ_1602" data-name="グループ 1602" transform="translate(-14.193 -4550.768)">
    <path id="パス_186" data-name="パス 186" d="M0,16.906c0-6,6.8-10.56,17.1-12.367,1.08-.19.671-2.487-.693-4.3A.157.157,0,0,1,16.559,0c4.8.721,6.562,3.707,7.806,3.593,4.207-.384,8.776-.561,13.551-.561,20.94,0,37.916,4.4,37.916,13.872s-16.976,14.1-37.916,14.1S0,26.38,0,16.906" transform="matrix(-0.999, 0.035, -0.035, -0.999, 91.474, 4582.171)" fill="#fff" stroke="#00244d" stroke-width="0.8"/>
    <path id="パス_2948" data-name="パス 2948" d="M-21.324-4.044H-28.2V-2.7h6.168C-22.5-1.656-23.112-.372-23.64.66l1.512.42c.744-1.524,1.608-3.384,2.2-4.86l-1.14-.336ZM-26.16-6.516a13.627,13.627,0,0,0,2.112-2.328,14.3,14.3,0,0,0,2.184,2.328Zm1.332-3.72A14.281,14.281,0,0,1-29.688-5.7a5.6,5.6,0,0,1,.9,1.14,16.265,16.265,0,0,0,2.22-1.6v.96h5.088v-1a17.092,17.092,0,0,0,2.268,1.608,6.783,6.783,0,0,1,.936-1.248,13.9,13.9,0,0,1-5.124-4.4ZM-6.876-4.224A4.57,4.57,0,0,0-11.724-8.9a5.332,5.332,0,0,0-5.508,5.136c0,2.028,1.1,3.492,2.436,3.492,1.308,0,2.34-1.488,3.06-3.912a24.268,24.268,0,0,0,.72-3.252A2.967,2.967,0,0,1-8.5-4.272a3.256,3.256,0,0,1-2.736,3.216,9.229,9.229,0,0,1-1.116.192l.9,1.428C-8.424.1-6.876-1.692-6.876-4.224Zm-8.82.3A3.777,3.777,0,0,1-12.648-7.4a18.012,18.012,0,0,1-.636,2.9c-.492,1.62-.96,2.376-1.464,2.376C-15.216-2.124-15.7-2.712-15.7-3.924ZM-.048-9.66-1.608-9.7c.012.2-.012.492-.024.72q-.036.306-.072.648h-.48A16.956,16.956,0,0,1-4.392-8.5L-4.356-7.1c.564.024,1.5.072,2.124.072h.384q-.072.738-.108,1.512A4.827,4.827,0,0,0-4.908-1.572,1.552,1.552,0,0,0-3.288.168a4.283,4.283,0,0,0,1.86-.48c.048.168.108.336.156.492L.108-.24c-.1-.288-.192-.588-.276-.888a9.215,9.215,0,0,0,2.52-3.648A1.784,1.784,0,0,1,3.6-3.1C3.6-1.92,2.664-.744.348-.492L1.14.768C4.092.324,5.088-1.32,5.088-3.024a3.1,3.1,0,0,0-2.316-2.94c.072-.228.168-.48.216-.612L1.524-6.924a6.593,6.593,0,0,1-.108.72H1.2a8.186,8.186,0,0,0-1.788.216c.012-.36.048-.732.084-1.092a33.026,33.026,0,0,0,4.26-.42L3.744-8.892a21.062,21.062,0,0,1-4.08.528c.036-.24.084-.456.12-.66C-.168-9.2-.12-9.42-.048-9.66ZM-3.492-1.884a3.13,3.13,0,0,1,1.5-2.208,16.722,16.722,0,0,0,.252,2.4,2.558,2.558,0,0,1-1.2.4C-3.324-1.3-3.492-1.5-3.492-1.884Zm2.856-2.8v-.036A5.982,5.982,0,0,1,1.02-4.98,7.39,7.39,0,0,1-.492-2.688,12.623,12.623,0,0,1-.636-4.68Zm12.3-4.98-1.656-.168a10.091,10.091,0,0,1-.324,2c-.372.036-.732.048-1.092.048A15.16,15.16,0,0,1,7-7.86L7.1-6.468c.516.036,1.008.048,1.5.048.2,0,.408,0,.624-.012A18.906,18.906,0,0,1,6.78-2.2l1.452.744A22.111,22.111,0,0,0,10.8-6.588a20.818,20.818,0,0,0,2.1-.42L12.852-8.4a14.711,14.711,0,0,1-1.62.384C11.412-8.664,11.568-9.276,11.664-9.66Zm-.624,8.3c0-.42.444-.732,1.14-.732a4.311,4.311,0,0,1,.972.12v.24c0,.66-.252,1.116-1.08,1.116C11.412-.612,11.04-.912,11.04-1.356Zm3.432-4.572h-1.5c.024.732.084,1.8.132,2.688-.276-.024-.54-.048-.828-.048-1.668,0-2.652.9-2.652,2.076,0,1.32,1.176,1.98,2.664,1.98,1.7,0,2.316-.864,2.316-1.98v-.12a10.173,10.173,0,0,1,1.62,1.284l.8-1.284a7.847,7.847,0,0,0-2.484-1.536c-.024-.6-.06-1.176-.072-1.524C14.46-4.92,14.436-5.424,14.472-5.928Zm2.064.636.852-1.26a20.671,20.671,0,0,0-2.964-1.632L13.656-7A17.32,17.32,0,0,1,16.536-5.292Zm8.508,2.364-1.428-.144A8.392,8.392,0,0,0,23.4-1.464C23.4-.252,24.492.444,26.508.444A19.263,19.263,0,0,0,28.956.276l.06-1.536a14.083,14.083,0,0,1-2.5.252c-1.284,0-1.644-.4-1.644-.924A4.111,4.111,0,0,1,25.044-2.928ZM23.688-9.576,21.852-9.72a6.152,6.152,0,0,1-.036,1.212q-.036.288-.108.684-.558.036-1.08.036a11.875,11.875,0,0,1-1.512-.1l.036,1.5c.42.024.876.048,1.452.048.252,0,.516-.012.792-.024-.072.348-.168.684-.252,1.008a25.982,25.982,0,0,1-2.076,5.4l1.668.564a37.289,37.289,0,0,0,1.908-5.556c.132-.492.252-1.02.36-1.536a22.091,22.091,0,0,0,2.34-.4v-1.5c-.66.156-1.332.288-2,.384.036-.168.072-.324.1-.456C23.484-8.712,23.592-9.252,23.688-9.576ZM24.4-5.952v1.4a20.618,20.618,0,0,1,2.316-.12,17.592,17.592,0,0,1,2.064.144l.036-1.44A21.1,21.1,0,0,0,26.7-6.072C25.932-6.072,25.068-6.012,24.4-5.952Z" transform="translate(53.289 4571.439) rotate(-3)" fill="#00244d"/>
  </g>
</svg>
