<svg xmlns="http://www.w3.org/2000/svg" xmlns:xlink="http://www.w3.org/1999/xlink" width="106.744" height="46.012" viewBox="0 0 106.744 46.012">
  <defs>
    <clipPath id="clip-path">
      <rect id="長方形_5321" data-name="長方形 5321" width="106.744" height="46.012" transform="translate(-2 -2)" fill="#fff" stroke="#00244d" stroke-width="1"/>
    </clipPath>
  </defs>
  <g id="グループ_1477" data-name="グループ 1477" transform="matrix(0.998, 0.07, -0.07, 0.998, -39.582, -6128.455)">
    <g id="グループ_1473" data-name="グループ 1473" transform="matrix(-0.998, 0.07, -0.07, -0.998, 574.544, 6147.364)">
      <g id="グループ_1472" data-name="グループ 1472" transform="translate(0 0)" clip-path="url(#clip-path)">
        <path id="パス_125" data-name="パス 125" d="M102.744,22.9c0-8.125-9.214-14.307-23.172-16.755-1.464-.257-.909-3.369.939-5.828a.213.213,0,0,0-.2-.32C73.8.979,71.417,5.025,69.732,4.87c-5.7-.521-11.89-.76-18.36-.76C23,4.11,0,10.068,0,22.9S23,42.012,51.372,42.012s51.372-6.271,51.372-19.107" transform="translate(0 0)" fill="#fff" stroke="#00244d" stroke-width="1"/>
      </g>
    </g>
    <path id="パス_2947" data-name="パス 2947" d="M-28.432-5.392H-37.6V-3.6h8.224C-30-2.208-30.816-.5-31.52.88l2.016.56c.992-2.032,2.144-4.512,2.928-6.48l-1.52-.448Zm-6.448-3.3a18.17,18.17,0,0,0,2.816-3.1,19.069,19.069,0,0,0,2.912,3.1Zm1.776-4.96A19.042,19.042,0,0,1-39.584-7.6a7.472,7.472,0,0,1,1.2,1.52,21.687,21.687,0,0,0,2.96-2.128v1.28h6.784V-8.256a22.789,22.789,0,0,0,3.024,2.144,9.043,9.043,0,0,1,1.248-1.664A18.528,18.528,0,0,1-31.2-13.648ZM-9.168-5.632a6.093,6.093,0,0,0-6.464-6.24,7.109,7.109,0,0,0-7.344,6.848c0,2.7,1.472,4.656,3.248,4.656,1.744,0,3.12-1.984,4.08-5.216a32.358,32.358,0,0,0,.96-4.336A3.955,3.955,0,0,1-11.328-5.7a4.342,4.342,0,0,1-3.648,4.288,12.306,12.306,0,0,1-1.488.256l1.2,1.9C-11.232.128-9.168-2.256-9.168-5.632Zm-11.76.4a5.036,5.036,0,0,1,4.064-4.64A24.016,24.016,0,0,1-17.712-6c-.656,2.16-1.28,3.168-1.952,3.168C-20.288-2.832-20.928-3.616-20.928-5.232ZM-.064-12.88l-2.08-.048c.016.272-.016.656-.032.96q-.048.408-.1.864h-.64a22.609,22.609,0,0,1-2.944-.224l.048,1.856c.752.032,2,.1,2.832.1h.512q-.1.984-.144,2.016C-4.848-6.3-6.544-4.16-6.544-2.1A2.07,2.07,0,0,0-4.384.224,5.711,5.711,0,0,0-1.9-.416c.064.224.144.448.208.656L.144-.32C.016-.7-.112-1.1-.224-1.5a12.286,12.286,0,0,0,3.36-4.864A2.379,2.379,0,0,1,4.8-4.128C4.8-2.56,3.552-.992.464-.656L1.52,1.024C5.456.432,6.784-1.76,6.784-4.032A4.138,4.138,0,0,0,3.7-7.952c.1-.3.224-.64.288-.816L2.032-9.232a8.79,8.79,0,0,1-.144.96H1.6a10.914,10.914,0,0,0-2.384.288c.016-.48.064-.976.112-1.456A44.035,44.035,0,0,0,5.008-10l-.016-1.856a28.083,28.083,0,0,1-5.44.7c.048-.32.112-.608.16-.88C-.224-12.272-.16-12.56-.064-12.88ZM-4.656-2.512a4.173,4.173,0,0,1,2-2.944,22.3,22.3,0,0,0,.336,3.2,3.411,3.411,0,0,1-1.6.528C-4.432-1.728-4.656-2-4.656-2.512ZM-.848-6.24v-.048A7.976,7.976,0,0,1,1.36-6.64,9.853,9.853,0,0,1-.656-3.584,16.83,16.83,0,0,1-.848-6.24Zm16.4-6.64L13.344-13.1a13.455,13.455,0,0,1-.432,2.672c-.5.048-.976.064-1.456.064a20.213,20.213,0,0,1-2.128-.112l.144,1.856c.688.048,1.344.064,2,.064.272,0,.544,0,.832-.016A25.208,25.208,0,0,1,9.04-2.928l1.936.992A29.481,29.481,0,0,0,14.4-8.784a27.758,27.758,0,0,0,2.8-.56L17.136-11.2a19.615,19.615,0,0,1-2.16.512C15.216-11.552,15.424-12.368,15.552-12.88ZM14.72-1.808c0-.56.592-.976,1.52-.976a5.748,5.748,0,0,1,1.3.16v.32c0,.88-.336,1.488-1.44,1.488C15.216-.816,14.72-1.216,14.72-1.808ZM19.3-7.9h-2c.032.976.112,2.4.176,3.584-.368-.032-.72-.064-1.1-.064-2.224,0-3.536,1.2-3.536,2.768,0,1.76,1.568,2.64,3.552,2.64,2.272,0,3.088-1.152,3.088-2.64v-.16a13.564,13.564,0,0,1,2.16,1.712L22.7-1.776a10.463,10.463,0,0,0-3.312-2.048c-.032-.8-.08-1.568-.1-2.032C19.28-6.56,19.248-7.232,19.3-7.9Zm2.752.848,1.136-1.68a27.561,27.561,0,0,0-3.952-2.176L18.208-9.328A23.093,23.093,0,0,1,22.048-7.056ZM33.392-3.9l-1.9-.192A11.189,11.189,0,0,0,31.2-1.952C31.2-.336,32.656.592,35.344.592A25.684,25.684,0,0,0,38.608.368l.08-2.048a18.777,18.777,0,0,1-3.328.336c-1.712,0-2.192-.528-2.192-1.232A5.482,5.482,0,0,1,33.392-3.9Zm-1.808-8.864-2.448-.192a8.2,8.2,0,0,1-.048,1.616q-.048.384-.144.912-.744.048-1.44.048a15.834,15.834,0,0,1-2.016-.128l.048,2c.56.032,1.168.064,1.936.064.336,0,.688-.016,1.056-.032-.1.464-.224.912-.336,1.344a34.642,34.642,0,0,1-2.768,7.2l2.224.752a49.719,49.719,0,0,0,2.544-7.408c.176-.656.336-1.36.48-2.048a29.455,29.455,0,0,0,3.12-.528v-2c-.88.208-1.776.384-2.672.512.048-.224.1-.432.128-.608C31.312-11.616,31.456-12.336,31.584-12.768Zm.944,4.832v1.872a27.491,27.491,0,0,1,3.088-.16,23.456,23.456,0,0,1,2.752.192l.048-1.92A28.137,28.137,0,0,0,35.6-8.1C34.576-8.1,33.424-8.016,32.528-7.936Z" transform="matrix(0.996, -0.087, 0.087, 0.996, 522.442, 6134.744)" fill="#00244d"/>
  </g>
</svg>
