<svg xmlns="http://www.w3.org/2000/svg" xmlns:xlink="http://www.w3.org/1999/xlink" width="196.677" height="39.067" viewBox="0 0 196.677 39.067">
  <defs>
    <clipPath id="clip-path">
      <rect id="長方形_16491" data-name="長方形 16491" width="196.676" height="39.067" transform="translate(-1.359 0.434)" fill="#fff"/>
    </clipPath>
  </defs>
  <g id="グループ_13715" data-name="グループ 13715" transform="translate(1.359 -0.434)" clip-path="url(#clip-path)">
    <path id="パス_63798" data-name="パス 63798" d="M225.973,13.679a9.024,9.024,0,0,1,5.283-1.242h11.751l-.334,1.705H231.478a2.786,2.786,0,0,0-2,.741,5.927,5.927,0,0,0-1.353,2.762h12.7l-.334,1.705h-12.7a9.926,9.926,0,0,0-.074,1.149q0,2.354,2.076,2.354h11.177l-.315,1.705H228.9a8.4,8.4,0,0,1-4.281-.816,3.4,3.4,0,0,1-1.409-3.1,11.3,11.3,0,0,1,.241-2.15q.667-3.485,2.521-4.819" transform="translate(-167.82 -7.854)" fill="#fff"/>
    <path id="パス_63799" data-name="パス 63799" d="M325.381,12.437h4.467l-2.354,12.122H322.36L315.5,14.976l-1.853,9.582h-4.485l2.02-10.416h-1.909l.334-1.705h7.043L323.509,22Z" transform="translate(-232.652 -7.854)" fill="#fff"/>
    <path id="パス_63800" data-name="パス 63800" d="M405.491,14.255a4.946,4.946,0,0,0-2.206,3.216,4.457,4.457,0,0,0-.074.8,3.355,3.355,0,0,0,1.362,2.771,5.751,5.751,0,0,0,3.642,1.066,12.761,12.761,0,0,0,3.577-.5,5.535,5.535,0,0,0,2.336-1.131l.352-1.8h-6.1l.333-1.705h10.435l-.76,3.966a15.362,15.362,0,0,1-4.578,1.965,21.737,21.737,0,0,1-5.931.908,14.8,14.8,0,0,1-6.6-1.2,4.253,4.253,0,0,1-2.595-3.966,6.538,6.538,0,0,1,.111-1.168,6.771,6.771,0,0,1,3.911-4.874,17.449,17.449,0,0,1,7.655-1.52,32.1,32.1,0,0,1,8.933,1.149l-.333,1.705A30.458,30.458,0,0,0,410,12.949a8.26,8.26,0,0,0-4.5,1.307" transform="translate(-300.18 -6.827)" fill="#fff"/>
    <path id="パス_63801" data-name="パス 63801" d="M503.417,22.094a3.647,3.647,0,0,0,1.2-1.705h4.486q-1.891,4.17-7.247,4.17H489.5l2.02-10.416h-1.909l.334-1.705h6.394l-2.02,10.417h7.21a2.915,2.915,0,0,0,1.891-.76" transform="translate(-368.675 -7.854)" fill="#fff"/>
    <path id="パス_63802" data-name="パス 63802" d="M580.666,12.437l-2.354,12.122h-4.485l2.02-10.416h-1.909l.334-1.705Z" transform="translate(-432.282 -7.854)" fill="#fff"/>
    <path id="パス_63803" data-name="パス 63803" d="M611.022,12.046a27.167,27.167,0,0,1,7.785-.816,30.757,30.757,0,0,1,4.8.426,27.749,27.749,0,0,1,4.188.927l-.333,1.687a28.007,28.007,0,0,0-4.207-.834,36.738,36.738,0,0,0-4.819-.334,14.1,14.1,0,0,0-4.133.426,1.946,1.946,0,0,0-1.446,1.427,1.748,1.748,0,0,0-.018.241q0,.611.964.8.444.093,3,.278l2.539.2a21.829,21.829,0,0,1,5.968,1.038q1.947.778,1.946,2.206a2.139,2.139,0,0,1-.056.482q-.39,2.057-3.1,2.929a27.9,27.9,0,0,1-7.785.8,32.142,32.142,0,0,1-4.8-.408,26.112,26.112,0,0,1-4.189-.945l.334-1.687a25.744,25.744,0,0,0,4.207.843,37.8,37.8,0,0,0,4.819.324,14.386,14.386,0,0,0,4.133-.417,1.929,1.929,0,0,0,1.445-1.436,1.689,1.689,0,0,0,.019-.241q0-.593-.983-.8-.426-.093-3-.278l-2.539-.185a21.147,21.147,0,0,1-5.95-1.057q-1.946-.76-1.946-2.206a3.4,3.4,0,0,1,.037-.482q.408-2.039,3.114-2.91" transform="translate(-457.556 -6.944)" fill="#fff"/>
    <path id="パス_63804" data-name="パス 63804" d="M713.259,12.437h4.467l-2.354,12.122h-4.485l1.019-5.208h-9.378l-1,5.208h-4.485l2.02-10.416h-1.909l.333-1.705h6.395l-1.02,5.208h9.379Z" transform="translate(-525.22 -7.854)" fill="#fff"/>
    <path id="パス_63805" data-name="パス 63805" d="M241.189,93.094a4.211,4.211,0,0,1,2.521,3.929,6.243,6.243,0,0,1-.13,1.223h-4.467a5.323,5.323,0,0,0,.074-.871,3.306,3.306,0,0,0-1.261-2.706,5.525,5.525,0,0,0-3.558-1.056A7.249,7.249,0,0,0,230,94.92a5.236,5.236,0,0,0-2.2,3.327,4.988,4.988,0,0,0-.093.945,3.067,3.067,0,0,0,1.2,2.576,5.877,5.877,0,0,0,3.67.982,26.516,26.516,0,0,0,8.007-1.168l-.352,1.835a30.44,30.44,0,0,1-8.025,1.168,14.1,14.1,0,0,1-6.487-1.223,4.235,4.235,0,0,1-2.521-3.93,5.711,5.711,0,0,1,.13-1.186,6.751,6.751,0,0,1,3.8-4.875,16.552,16.552,0,0,1,7.544-1.483,14.257,14.257,0,0,1,6.506,1.2" transform="translate(-167.819 -67.783)" fill="#fff"/>
    <path id="パス_63806" data-name="パス 63806" d="M329.6,94.227a3.492,3.492,0,0,1,2.159,3.188,4.35,4.35,0,0,1-.074.778l-1.372,7.025h-4.485l.871-4.5h-9.36l-.871,4.5h-4.485L314,94.8h-1.909l.333-1.705H323.7a12.85,12.85,0,0,1,5.9,1.131m-2.4,3.966a3.692,3.692,0,0,0,.074-.723q0-2.669-3.911-2.669h-4.875l-.815,4.207h9.36Z" transform="translate(-234.779 -68.694)" fill="#fff"/>
    <path id="パス_63807" data-name="パス 63807" d="M422.278,93.1l-2.354,12.122h-4.467l1.65-8.489-6.135,8.489h-5.134l-2.669-7.988-1.539,7.988h-2.187l2.02-10.417h-1.909l.333-1.705h6.395l3.466,10.379L417.236,93.1Z" transform="translate(-300.748 -68.693)" fill="#fff"/>
    <path id="パス_63808" data-name="パス 63808" d="M517.255,93.93a2.657,2.657,0,0,1,1.344,2.391,4.054,4.054,0,0,1-.074.76,4.147,4.147,0,0,1-2.076,2.855,9.176,9.176,0,0,1-4.857,1.149h-7.784l-.815,4.133h-4.466l2.02-10.416h-1.909l.333-1.705h14.364a7.5,7.5,0,0,1,3.92.834m-4.18,4.819a2.756,2.756,0,0,0,.983-1.668,3.2,3.2,0,0,0,.055-.593,1.685,1.685,0,0,0-.445-1.232,1.634,1.634,0,0,0-1.223-.454h-7.414l-.89,4.578h7.228a2.65,2.65,0,0,0,1.705-.63" transform="translate(-375.484 -68.694)" fill="#fff"/>
    <path id="パス_63809" data-name="パス 63809" d="M60.222,7A15.226,15.226,0,1,1,45,22.228,15.243,15.243,0,0,1,60.222,7m0-2.7A17.929,17.929,0,1,0,78.15,22.228,17.929,17.929,0,0,0,60.222,4.3" transform="translate(-31.358 -1.715)" fill="#fff"/>
    <path id="パス_63810" data-name="パス 63810" d="M82.263,7.958c4.969,0,9,7.046,9,15.74s-4.029,15.743-9,15.743S73.272,32.394,73.272,23.7,77.3,7.958,82.263,7.958m0-1.72c-6.006,0-10.711,7.669-10.711,17.46s4.7,17.463,10.711,17.463S92.981,33.491,92.981,23.7,88.273,6.238,82.263,6.238" transform="translate(-53.427 -3.178)" fill="#fff"/>
    <path id="パス_63811" data-name="パス 63811" d="M96.063,7.958c2.484,0,4.5,7.046,4.5,15.74s-2.015,15.743-4.5,15.743S91.568,32.394,91.568,23.7s2.015-15.74,4.495-15.74m0-1.72c-4.906,0-6.215,10.975-6.215,17.46s1.309,17.463,6.215,17.463c2.1,0,3.724-1.971,4.835-5.858a44.042,44.042,0,0,0,1.384-11.6A44.031,44.031,0,0,0,100.9,12.1c-1.111-3.886-2.738-5.857-4.835-5.857" transform="translate(-67.227 -3.178)" fill="#fff"/>
    <path id="パス_63812" data-name="パス 63812" d="M61.553,35.416c8.7,0,15.746,4.026,15.746,8.993s-7.049,9-15.746,9-15.737-4.028-15.737-9,7.045-8.993,15.737-8.993m0-1.72C51.763,33.7,44.1,38.4,44.1,44.409s7.668,10.715,17.458,10.715,17.466-4.707,17.466-10.715S71.346,33.7,61.553,33.7" transform="translate(-32.717 -23.889)" fill="#fff"/>
    <path id="パス_63813" data-name="パス 63813" d="M61.553,53.709c8.7,0,15.746,2.016,15.746,4.5s-7.049,4.5-15.746,4.5-15.737-2.012-15.737-4.5,7.045-4.5,15.737-4.5m0-1.72c-6.484,0-17.458,1.31-17.458,6.218,0,2.1,1.97,3.724,5.857,4.835a44.05,44.05,0,0,0,11.6,1.383,44.091,44.091,0,0,0,11.606-1.383c3.888-1.11,5.859-2.737,5.859-4.835,0-4.909-10.979-6.218-17.466-6.218" transform="translate(-32.717 -37.687)" fill="#fff"/>
    <path id="パス_63814" data-name="パス 63814" d="M115.141,25.737v0Z" transform="translate(-86.305 -5.217)" fill="#fff"/>
    <path id="パス_63814_-_アウトライン" data-name="パス 63814 - アウトライン" d="M114.141,8.94h2v33.6h-2Z" transform="translate(-86.305 -5.217)" fill="#fff"/>
    <path id="パス_63815" data-name="パス 63815" d="M80.035,77.3h0Z" transform="translate(-34.225 -56.776)" fill="#fff"/>
    <path id="パス_63815_-_アウトライン" data-name="パス 63815 - アウトライン" d="M46.095,76.3h33.94v2H46.095Z" transform="translate(-34.225 -56.776)" fill="#fff"/>
    <path id="パス_63816" data-name="パス 63816" d="M65.925,69.769,43.466,45.117a.566.566,0,1,0-.836.762l22.134,24.3a3.657,3.657,0,0,1,1.162-.4" transform="translate(-31.501 -32.365)" fill="#fff"/>
    <path id="パス_63817" data-name="パス 63817" d="M.493,9.358.163,9C.106,8.933.145,8.8.253,8.7l.293-.266c.108-.1.242-.126.3-.062l.084.092c.242-.486.508-1.009.772-1.524l-.252-.277c-.058-.064-.019-.2.089-.294l.293-.267c.107-.1.243-.125.3-.061l.022.024c.3-.582.577-1.106.775-1.481L1.55,3.076A6.306,6.306,0,0,1,.478.826.724.724,0,0,1,.719.2.712.712,0,0,1,1.427.036,6.7,6.7,0,0,1,3.5,1.3L4.849,2.785c.387-.16.959-.4,1.605-.658l-.01-.011c-.059-.064-.019-.2.089-.294l.292-.266c.108-.1.243-.126.3-.062l.241.264c.535-.215,1.081-.431,1.588-.628l-.071-.079C8.826.988,8.865.857,8.973.758L9.265.493c.108-.1.243-.126.3-.062l.317.348A5.457,5.457,0,0,1,11.168.383c.267.125.525.825.525.825-.041.373-.729.884-4.891,3.774.684.866,2.078,2.686,2.8,3.86a14.721,14.721,0,0,1,1.674-.181c.11.048.41.632.338.736a15.119,15.119,0,0,1-1.7.674c.2.233.32.459.259.515s-.269-.077-.479-.3a14.55,14.55,0,0,1-.816,1.6c-.109.062-.663-.29-.7-.4a14.133,14.133,0,0,1,.328-1.617c-1.1-.824-2.781-2.383-3.587-3.151-3.2,3.8-3.771,4.432-4.144,4.438,0,0-.673-.321-.773-.6a5.181,5.181,0,0,1,.491-1.2" transform="translate(0.543 1.526)" fill="#fff"/>
  </g>
</svg>
