<svg xmlns="http://www.w3.org/2000/svg" xmlns:xlink="http://www.w3.org/1999/xlink" width="254.293" height="50.512" viewBox="0 0 254.293 50.512">
  <defs>
    <clipPath id="clip-path">
      <rect id="長方形_16492" data-name="長方形 16492" width="254.293" height="50.512" transform="translate(-1.359 0.434)" fill="#1b1464"/>
    </clipPath>
  </defs>
  <g id="グループ_13716" data-name="グループ 13716" transform="translate(1.359 -0.434)" clip-path="url(#clip-path)">
    <path id="パス_63818" data-name="パス 63818" d="M226.782,14.043q2.2-1.606,6.83-1.606h15.193l-.432,2.2H233.9a3.6,3.6,0,0,0-2.588.959,7.663,7.663,0,0,0-1.749,3.571h16.416l-.431,2.2H229.13a12.841,12.841,0,0,0-.1,1.486q0,3.044,2.684,3.043h14.451l-.408,2.2H230.568q-3.858,0-5.536-1.054a4.393,4.393,0,0,1-1.821-4,14.606,14.606,0,0,1,.312-2.78q.863-4.505,3.259-6.231" transform="translate(-151.195 -6.639)" fill="#1b1464"/>
    <path id="パス_63819" data-name="パス 63819" d="M330.132,12.437h5.775L332.864,28.11h-6.638l-8.867-12.39-2.4,12.39h-5.8l2.612-13.468h-2.469l.432-2.2h9.107L327.711,24.8Z" transform="translate(-209.84 -6.639)" fill="#1b1464"/>
    <path id="パス_63820" data-name="パス 63820" d="M407.484,15.187a6.4,6.4,0,0,0-2.852,4.158,5.755,5.755,0,0,0-.1,1.031,4.338,4.338,0,0,0,1.761,3.582,7.436,7.436,0,0,0,4.709,1.378,16.5,16.5,0,0,0,4.625-.647,7.157,7.157,0,0,0,3.02-1.462l.456-2.325h-7.884l.431-2.2h13.491l-.982,5.128a19.864,19.864,0,0,1-5.919,2.54,28.1,28.1,0,0,1-7.669,1.174,19.134,19.134,0,0,1-8.531-1.558,5.5,5.5,0,0,1-3.355-5.128,8.46,8.46,0,0,1,.144-1.51,8.755,8.755,0,0,1,5.057-6.3,22.561,22.561,0,0,1,9.9-1.965,41.5,41.5,0,0,1,11.55,1.486l-.431,2.2a39.382,39.382,0,0,0-11.6-1.27,10.68,10.68,0,0,0-5.824,1.689" transform="translate(-270.923 -5.71)" fill="#1b1464"/>
    <path id="パス_63821" data-name="パス 63821" d="M507.5,24.923a4.717,4.717,0,0,0,1.557-2.2h5.8q-2.445,5.392-9.37,5.392H489.5l2.612-13.468h-2.468l.431-2.2h8.268l-2.612,13.468h9.322a3.769,3.769,0,0,0,2.444-.983" transform="translate(-332.882 -6.639)" fill="#1b1464"/>
    <path id="パス_63822" data-name="パス 63822" d="M582.67,12.437,579.627,28.11h-5.8l2.612-13.468h-2.468l.431-2.2Z" transform="translate(-390.419 -6.639)" fill="#1b1464"/>
    <path id="パス_63823" data-name="パス 63823" d="M612.1,12.284q3.236-1.054,10.065-1.054a39.768,39.768,0,0,1,6.207.551,35.875,35.875,0,0,1,5.415,1.2l-.431,2.181a36.218,36.218,0,0,0-5.44-1.078,47.5,47.5,0,0,0-6.231-.431,18.227,18.227,0,0,0-5.344.551,2.516,2.516,0,0,0-1.87,1.846,2.269,2.269,0,0,0-.024.311q0,.791,1.246,1.03.574.121,3.882.36l3.283.264a28.223,28.223,0,0,1,7.716,1.342q2.517,1.006,2.516,2.852a2.765,2.765,0,0,1-.072.623q-.5,2.66-4,3.786a36.067,36.067,0,0,1-10.065,1.03,41.555,41.555,0,0,1-6.207-.527,33.757,33.757,0,0,1-5.416-1.222l.431-2.181a33.285,33.285,0,0,0,5.44,1.09,48.872,48.872,0,0,0,6.231.419,18.6,18.6,0,0,0,5.344-.539,2.494,2.494,0,0,0,1.869-1.857,2.2,2.2,0,0,0,.024-.312q0-.766-1.271-1.03-.551-.12-3.882-.36l-3.283-.239a27.343,27.343,0,0,1-7.693-1.366q-2.516-.983-2.516-2.852a4.416,4.416,0,0,1,.048-.623q.527-2.636,4.026-3.763" transform="translate(-413.28 -5.815)" fill="#1b1464"/>
    <path id="パス_63824" data-name="パス 63824" d="M718.01,12.437h5.775L720.742,28.11h-5.8l1.318-6.734H704.135l-1.294,6.734h-5.8l2.612-13.468h-2.468l.431-2.2h8.268l-1.318,6.734h12.126Z" transform="translate(-474.487 -6.639)" fill="#1b1464"/>
    <path id="パス_63825" data-name="パス 63825" d="M246.455,93.447a5.445,5.445,0,0,1,3.259,5.08,8.076,8.076,0,0,1-.168,1.582h-5.775a6.881,6.881,0,0,0,.1-1.126,4.275,4.275,0,0,0-1.63-3.5,7.144,7.144,0,0,0-4.6-1.366,9.372,9.372,0,0,0-5.643,1.69,6.769,6.769,0,0,0-2.84,4.3,6.449,6.449,0,0,0-.12,1.222,3.966,3.966,0,0,0,1.557,3.331,7.6,7.6,0,0,0,4.745,1.27,34.284,34.284,0,0,0,10.352-1.51l-.455,2.373a39.358,39.358,0,0,1-10.376,1.51,18.224,18.224,0,0,1-8.388-1.582,5.476,5.476,0,0,1-3.259-5.081,7.386,7.386,0,0,1,.168-1.534,8.729,8.729,0,0,1,4.912-6.3,21.4,21.4,0,0,1,9.754-1.917q5.439,0,8.412,1.558" transform="translate(-151.195 -60.849)" fill="#1b1464"/>
    <path id="パス_63826" data-name="パス 63826" d="M334.761,94.558a4.515,4.515,0,0,1,2.792,4.122,5.623,5.623,0,0,1-.1,1.007l-1.774,9.083h-5.8l1.127-5.824h-12.1l-1.126,5.824h-5.8L314.595,95.3h-2.468l.431-2.2h14.57a16.614,16.614,0,0,1,7.633,1.462m-3.1,5.128a4.767,4.767,0,0,0,.1-.935q0-3.451-5.056-3.451h-6.3l-1.054,5.44h12.1Z" transform="translate(-211.764 -61.672)" fill="#1b1464"/>
    <path id="パス_63827" data-name="パス 63827" d="M428.967,93.1l-3.044,15.673h-5.775l2.133-10.976-7.932,10.976h-6.638L404.26,98.44l-1.989,10.329h-2.827L402.055,95.3h-2.468l.431-2.2h8.268l4.482,13.42,9.681-13.42Z" transform="translate(-271.438 -61.672)" fill="#1b1464"/>
    <path id="パス_63828" data-name="パス 63828" d="M522.742,94.175a3.434,3.434,0,0,1,1.737,3.091,5.243,5.243,0,0,1-.1.982,5.362,5.362,0,0,1-2.684,3.691,11.863,11.863,0,0,1-6.279,1.486H505.355l-1.054,5.344h-5.775L501.138,95.3H498.67l.431-2.2h18.572a9.7,9.7,0,0,1,5.068,1.079m-5.4,6.231a3.565,3.565,0,0,0,1.271-2.157,4.157,4.157,0,0,0,.071-.767,2.178,2.178,0,0,0-.575-1.593,2.112,2.112,0,0,0-1.581-.587h-9.586l-1.15,5.919h9.346a3.427,3.427,0,0,0,2.2-.815" transform="translate(-339.041 -61.672)" fill="#1b1464"/>
    <path id="パス_63829" data-name="パス 63829" d="M65.474,7.793A19.687,19.687,0,1,1,45.788,27.48,19.709,19.709,0,0,1,65.474,7.793m0-3.495A23.182,23.182,0,1,0,88.655,27.48,23.181,23.181,0,0,0,65.474,4.3" transform="translate(-27.756 -1.086)" fill="#1b1464"/>
    <path id="パス_63830" data-name="パス 63830" d="M85.4,8.462c6.425,0,11.635,9.11,11.635,20.352S91.825,49.168,85.4,49.168,73.776,40.056,73.776,28.814,78.981,8.462,85.4,8.462m0-2.224c-7.766,0-13.848,9.916-13.848,22.576S77.635,51.392,85.4,51.392s13.859-9.918,13.859-22.579S93.172,6.238,85.4,6.238" transform="translate(-47.719 -2.409)" fill="#1b1464"/>
    <path id="パス_63831" data-name="パス 63831" d="M97.884,8.462c3.212,0,5.817,9.11,5.817,20.352S101.1,49.168,97.884,49.168s-5.812-9.112-5.812-20.355S94.677,8.462,97.884,8.462m0-2.224c-6.343,0-8.036,14.191-8.036,22.576s1.692,22.579,8.036,22.579c2.712,0,4.815-2.548,6.252-7.574a56.944,56.944,0,0,0,1.79-15,56.929,56.929,0,0,0-1.79-15c-1.437-5.025-3.54-7.573-6.252-7.573" transform="translate(-60.203 -2.409)" fill="#1b1464"/>
    <path id="パス_63832" data-name="パス 63832" d="M66.667,35.92c11.244,0,20.358,5.2,20.358,11.628S77.911,59.179,66.667,59.179,46.319,53.971,46.319,47.548,55.428,35.92,66.667,35.92m0-2.224C54.01,33.7,44.1,39.78,44.1,47.548S54.01,61.4,66.667,61.4s22.582-6.086,22.582-13.855S79.33,33.7,66.667,33.7" transform="translate(-28.986 -21.144)" fill="#1b1464"/>
    <path id="パス_63833" data-name="パス 63833" d="M66.667,54.213c11.244,0,20.358,2.606,20.358,5.816s-9.114,5.815-20.358,5.815-20.348-2.6-20.348-5.815,9.109-5.816,20.348-5.816m0-2.224c-8.384,0-22.572,1.693-22.572,8.04,0,2.712,2.548,4.815,7.573,6.251a56.954,56.954,0,0,0,15,1.788A57.007,57.007,0,0,0,81.673,66.28c5.027-1.436,7.576-3.539,7.576-6.251,0-6.347-14.195-8.04-22.582-8.04" transform="translate(-28.986 -33.625)" fill="#1b1464"/>
    <path id="パス_63834" data-name="パス 63834" d="M115.141,30.657v0Z" transform="translate(-77.46 -4.253)" fill="#1b1464"/>
    <path id="パス_63834_-_アウトライン" data-name="パス 63834 - アウトライン" d="M114.141,8.94h2V52.378h-2Z" transform="translate(-77.46 -4.253)" fill="#1b1464"/>
    <path id="パス_63835" data-name="パス 63835" d="M89.978,77.3h0Z" transform="translate(-30.35 -50.892)" fill="#1b1464"/>
    <path id="パス_63835_-_アウトライン" data-name="パス 63835 - アウトライン" d="M46.095,76.3H89.978v2H46.095Z" transform="translate(-30.35 -50.892)" fill="#1b1464"/>
    <path id="パス_63836" data-name="パス 63836" d="M72.792,77.045,43.754,45.171a.731.731,0,1,0-1.081.985L71.291,77.569a4.728,4.728,0,0,1,1.5-.524" transform="translate(-27.885 -28.81)" fill="#1b1464"/>
    <path id="パス_63837" data-name="パス 63837" d="M.637,12.1l-.427-.468c-.074-.082-.023-.252.116-.379l.378-.344c.139-.126.313-.162.388-.08l.108.119c.313-.628.657-1.305,1-1.97l-.326-.358c-.075-.083-.024-.253.115-.38l.378-.345c.139-.126.314-.162.389-.079l.028.031c.391-.753.746-1.429,1-1.915L2,3.977A8.153,8.153,0,0,1,.618,1.068.935.935,0,0,1,.93.258.921.921,0,0,1,1.844.046,8.659,8.659,0,0,1,4.521,1.683L6.269,3.6c.5-.207,1.239-.511,2.076-.851l-.012-.014c-.076-.083-.024-.253.115-.38l.378-.344c.139-.127.314-.162.389-.08l.311.341c.691-.277,1.4-.558,2.053-.811l-.092-.1c-.075-.082-.024-.252.116-.379L11.98.637c.139-.127.314-.163.389-.08l.41.45A7.056,7.056,0,0,1,14.44.5c.345.161.678,1.067.678,1.067-.053.482-.942,1.142-6.324,4.88.884,1.12,2.687,3.473,3.624,4.99a19.034,19.034,0,0,1,2.164-.234c.143.063.53.817.437.952a19.548,19.548,0,0,1-2.2.871c.264.3.414.593.335.665s-.348-.1-.62-.384a18.812,18.812,0,0,1-1.054,2.07c-.141.08-.857-.375-.905-.523A18.273,18.273,0,0,1,11,12.759C9.581,11.694,7.4,9.679,6.36,8.685,2.216,13.6,1.484,14.415,1,14.423c0,0-.871-.415-1-.775A6.7,6.7,0,0,1,.637,12.1" transform="translate(1.1 1.847)" fill="#1b1464"/>
  </g>
</svg>
