<svg xmlns="http://www.w3.org/2000/svg" width="46.425" height="46.425" viewBox="0 0 46.425 46.425">
  <g id="グループ_7393" data-name="グループ 7393" transform="translate(-601 -2690)">
    <path id="パス_27706" data-name="パス 27706" d="M23.213,0A23.213,23.213,0,1,1,0,23.213,23.213,23.213,0,0,1,23.213,0Z" transform="translate(601 2690)" fill="#003986"/>
    <path id="パス_63780" data-name="パス 63780" d="M-3.263-13.55c.325-2.4,1.525-3.6,3.35-3.6a2.8,2.8,0,0,1,2.95,3c0,1.6-.575,2.65-3.15,5.05A20.375,20.375,0,0,0-5.463-2V-.45H5.212V-2.175h-8.6C-2.562-4-1.287-5.625,1.412-8c3.025-2.65,3.775-4.15,3.775-6.15,0-2.975-2.1-4.725-5.075-4.725-2.8,0-4.9,1.675-5.425,4.85Z" transform="translate(624 2723)" fill="#fff"/>
  </g>
</svg>
