<svg xmlns="http://www.w3.org/2000/svg" width="46.425" height="46.425" viewBox="0 0 46.425 46.425">
  <g id="グループ_7393" data-name="グループ 7393" transform="translate(-601 -2690)">
    <path id="パス_27706" data-name="パス 27706" d="M23.213,0A23.213,23.213,0,1,1,0,23.213,23.213,23.213,0,0,1,23.213,0Z" transform="translate(601 2690)" fill="#003986"/>
    <path id="パス_63782" data-name="パス 63782" d="M-3.338-14.55a3.2,3.2,0,0,1,3.2-2.625,2.775,2.775,0,0,1,3,2.925c0,2.075-1.3,3.35-3.875,3.35h-1.25v1.775h1.4c2.775,0,4.1,1.375,4.1,3.725A3.235,3.235,0,0,1-.088-1.825,3.411,3.411,0,0,1-3.663-4.5l-2,.75C-4.712-1.225-2.887-.125-.088-.125a5.1,5.1,0,0,0,5.475-5.3,4.493,4.493,0,0,0-3.85-4.6v-.225a4.03,4.03,0,0,0,3.45-4.175c0-2.625-2.125-4.45-5.1-4.45a5.2,5.2,0,0,0-5.225,3.65Z" transform="translate(624 2723)" fill="#fff"/>
  </g>
</svg>
