<svg xmlns="http://www.w3.org/2000/svg" width="45.54" height="30.24" viewBox="0 0 45.54 30.24">
  <path id="パス_63773" data-name="パス 63773" d="M12.285.5h.09C19.665.5,23.4-5.535,23.4-14.9c0-8.91-3.645-14.85-10.71-14.85-6.8,0-11.07,5.9-11.07,15.21C1.71-5.31,5.67.5,12.285.5Zm.18-3.87H12.42c-3.465,0-5.76-4.05-5.67-11.385,0-7.065,2.295-11.115,5.715-11.115,3.87,0,5.715,4.14,5.715,11.115C18.18-7.56,16.245-3.375,12.465-3.375ZM27-1.665A16.231,16.231,0,0,0,35.55.5c7.47,0,11.61-3.96,11.61-8.865,0-3.87-2.97-6.66-6.75-7.29v-.09c3.78-1.26,5.625-3.78,5.625-6.84,0-3.735-3.015-7.155-9.27-7.155a16.29,16.29,0,0,0-8.73,2.385l1.26,3.69a12.806,12.806,0,0,1,6.435-1.98c3.645,0,5.085,1.845,5.085,3.87,0,3.015-3.42,4.275-6.21,4.275h-2.79v3.78H34.6c3.555,0,7.155,1.485,7.2,5.175.045,2.16-1.62,4.95-6.435,4.95a15.178,15.178,0,0,1-7.11-1.935Z" transform="translate(-1.62 29.745)" fill="rgba(64,135,232,0.45)"/>
</svg>
