<svg xmlns="http://www.w3.org/2000/svg" width="45.945" height="30.24" viewBox="0 0 45.945 30.24">
  <path id="パス_30709" data-name="パス 30709" d="M12.285.5h.09C19.665.5,23.4-5.535,23.4-14.9c0-8.91-3.645-14.85-10.71-14.85-6.8,0-11.07,5.9-11.07,15.21C1.71-5.31,5.67.5,12.285.5Zm.18-3.87H12.42c-3.465,0-5.76-4.05-5.67-11.385,0-7.065,2.295-11.115,5.715-11.115,3.87,0,5.715,4.14,5.715,11.115C18.18-7.56,16.245-3.375,12.465-3.375ZM47.565,0V-4.185H34.56v-.09l2.565-2.16c5.9-5.265,9.72-9.27,9.72-14.49,0-4.59-3.195-8.82-9.81-8.82a14.784,14.784,0,0,0-9.315,3.2l1.62,3.6A10.831,10.831,0,0,1,36-25.6c4.32,0,5.715,2.565,5.715,5.31-.045,3.825-3.24,7.155-11.07,14.175l-3.51,3.06V0Z" transform="translate(-1.62 29.745)" fill="rgba(64,135,232,0.45)"/>
</svg>
