<svg xmlns="http://www.w3.org/2000/svg" width="19.472" height="21.594" viewBox="0 0 19.472 21.594">
  <path id="パス_63777" data-name="パス 63777" d="M7.02-2.452A12.752,12.752,0,0,0,10.145-.817L8.708,1.938a8.9,8.9,0,0,1-1.727-.725Q6.8,1.121,4.384-.5A10.381,10.381,0,0,1,.178.33,9.232,9.232,0,0,1-6.8-2.294q-2.525-2.624-2.525-7.37T-6.8-17.027a9.087,9.087,0,0,1,6.869-2.63,8.992,8.992,0,0,1,6.816,2.63Q9.406-14.4,9.406-9.664a12.719,12.719,0,0,1-.7,4.4A9.158,9.158,0,0,1,7.02-2.452Zm-3.138-2.2A5.836,5.836,0,0,0,5.01-6.79a10.014,10.014,0,0,0,.376-2.874,7.324,7.324,0,0,0-1.477-5A4.932,4.932,0,0,0,.046-16.321,4.943,4.943,0,0,0-3.823-14.66a7.306,7.306,0,0,0-1.483,5A7.476,7.476,0,0,0-3.823-4.594,4.786,4.786,0,0,0-.073-2.914a4.577,4.577,0,0,0,1.6-.277A11.287,11.287,0,0,0-.89-4.4L.2-6.631A13.255,13.255,0,0,1,3.883-4.654Z" transform="translate(9.327 19.656)" fill="#9db2ce"/>
</svg>
