<svg id="グループ_7247" data-name="グループ 7247" xmlns="http://www.w3.org/2000/svg" width="34" height="34" viewBox="0 0 34 34">
  <circle id="楕円形_570" data-name="楕円形 570" cx="17" cy="17" r="17" fill="#de6c28"/>
  <path id="パス_63788" data-name="パス 63788" d="M3.942-5.8c1.836.09,2.88.774,2.88,2.358A1.606,1.606,0,0,1,5.148-1.62c-.99,0-1.44-.864-1.548-1.818L.9-3.294C1.1-1.512,2.088.216,5.2.216c2.772,0,4.284-1.332,4.284-3.744A3.236,3.236,0,0,0,6.5-6.912v-.036a2.892,2.892,0,0,0,2.52-3.078c0-2.07-1.584-3.168-3.96-3.168a3.619,3.619,0,0,0-4,3.312l2.592.108c.072-.882.45-1.566,1.422-1.566.99,0,1.35.648,1.35,1.494,0,1.152-.738,1.962-2.484,2.088Z" transform="translate(12 24)" fill="#fff"/>
</svg>
