<svg id="グループ_7247" data-name="グループ 7247" xmlns="http://www.w3.org/2000/svg" width="34" height="34" viewBox="0 0 34 34">
  <circle id="楕円形_570" data-name="楕円形 570" cx="17" cy="17" r="17" fill="#de6c28"/>
  <path id="パス_63790" data-name="パス 63790" d="M1.314-5.94l2.322.288A1.577,1.577,0,0,1,5.094-6.57c.936,0,1.656.846,1.656,2.52,0,1.764-.558,2.5-1.674,2.5-1.008,0-1.4-.792-1.62-1.944L.846-3.33A3.95,3.95,0,0,0,5.13.216c2.754,0,4.32-1.494,4.32-4.392,0-2.844-1.656-4.23-3.546-4.23a3.216,3.216,0,0,0-2.052.7H3.8l.486-3.258H8.55l.306-2H2.322Z" transform="translate(12 24)" fill="#fff"/>
</svg>
