<?xml version="1.0" standalone="no"?>
<!DOCTYPE svg PUBLIC "-//W3C//DTD SVG 20010904//EN"
 "http://www.w3.org/TR/2001/REC-SVG-20010904/DTD/svg10.dtd">
<svg version="1.0" xmlns="http://www.w3.org/2000/svg"
 width="120.000000pt" height="120.000000pt" viewBox="0 0 120.000000 120.000000"
 preserveAspectRatio="xMidYMid meet">
<metadata>
Created by potrace 1.14, written by Peter Selinger 2001-2017
</metadata>
<g transform="translate(0.000000,120.000000) scale(0.100000,-0.100000)"
fill="#000000" stroke="none">
<path d="M15 1070 c-8 -13 24 -80 42 -87 18 -7 17 -38 -2 -53 -8 -7 -15 -19
-15 -28 0 -8 -6 -23 -14 -31 -23 -26 -30 -67 -12 -74 9 -4 31 13 61 49 26 30
50 54 53 54 18 0 93 -84 88 -97 -12 -30 6 -32 31 -3 13 16 31 30 39 30 8 0 14
5 14 10 0 10 -13 14 -36 11 -12 -1 -90 97 -83 103 2 2 30 22 62 45 103 75 43
92 -86 24 -26 -14 -29 -13 -69 21 -42 37 -62 44 -73 26z"/>
<path d="M628 1041 c-106 -21 -234 -115 -292 -214 -22 -37 -31 -45 -41 -37
-18 15 -30 -6 -15 -26 10 -11 10 -27 1 -71 -48 -242 78 -465 308 -543 61 -20
171 -28 232 -15 221 44 383 251 372 476 -10 204 -158 383 -354 428 -49 12
-155 12 -211 2z m82 -119 c0 -57 0 -58 -30 -60 -16 -1 -30 3 -30 8 0 20 42
110 51 110 5 0 9 -26 9 -58z m79 15 c29 -61 28 -79 -6 -74 -27 4 -28 7 -29 60
-1 32 2 57 6 57 5 0 18 -19 29 -43z m-178 -37 c-13 -41 -20 -50 -39 -50 l-23
0 22 33 c22 31 50 67 54 67 1 0 -6 -22 -14 -50z m-91 -18 c-25 -50 -36 -61
-85 -85 l-56 -27 31 45 c23 34 122 124 137 125 2 0 -10 -26 -27 -58z m374 -2
c18 -32 18 -32 -4 -28 -15 2 -26 15 -36 43 -7 22 -14 42 -14 44 0 10 37 -31
54 -59z m97 1 c26 -22 56 -56 67 -75 l20 -34 -54 29 c-45 23 -60 38 -84 84
-33 63 -24 63 51 -4z m-281 -95 c0 -33 -1 -34 -43 -37 -42 -4 -43 -4 -39 26 6
35 17 45 55 45 24 0 27 -4 27 -34z m114 26 c3 -5 7 -22 10 -38 5 -29 5 -29
-39 -26 -43 4 -44 5 -43 38 1 31 4 34 34 34 18 0 35 -4 38 -8z m-240 -39 c-8
-34 -3 -29 -40 -36 -29 -6 -31 -4 -27 16 7 27 30 47 55 47 15 0 17 -5 12 -27z
m354 -6 c17 -35 14 -38 -24 -29 -22 6 -30 15 -32 36 -3 24 0 27 20 24 13 -2
28 -15 36 -31z m-467 -19 c-8 -21 -77 -55 -89 -44 -3 4 85 66 95 66 1 0 -1
-10 -6 -22z m601 -35 l21 -22 -49 18 c-36 14 -50 25 -52 41 l-4 22 32 -18 c17
-11 41 -29 52 -41z m-362 -21 c3 -8 4 -29 2 -48 -4 -33 -6 -34 -47 -34 -48 0
-53 6 -47 56 3 27 9 34 31 37 40 6 56 3 61 -11z m129 2 c3 -3 6 -22 8 -44 l3
-40 -48 0 -49 0 0 43 c0 23 4 45 10 48 10 7 68 1 76 -7z m119 -47 c3 -36 3
-37 -32 -37 -36 0 -36 0 -36 44 l0 43 33 -6 c28 -6 32 -11 35 -44z m-382 27
c-3 -9 -6 -27 -6 -40 0 -21 -5 -24 -35 -24 -30 0 -35 3 -35 24 0 44 10 56 47
56 28 0 34 -3 29 -16z m-119 -19 c3 -9 3 -19 -1 -22 -7 -7 -36 16 -36 28 0 15
30 10 37 -6z m617 -5 c63 -27 59 -42 -10 -38 -54 3 -57 5 -60 31 -3 33 8 34
70 7z m-664 -31 c0 -5 -16 -9 -35 -9 -26 0 -33 4 -29 14 11 27 64 23 64 -5z
m47 -81 c3 -21 -1 -28 -14 -28 -23 0 -103 40 -103 51 0 6 25 9 57 7 53 -3 57
-5 60 -30z m113 -10 c0 -23 -3 -38 -8 -32 -4 5 -20 24 -36 42 l-30 32 37 0
c37 0 37 0 37 -42z m138 -5 l-3 -48 -40 0 c-40 0 -40 1 -46 43 -3 23 -3 44 -1
47 3 3 25 5 49 5 l44 0 -3 -47z m140 6 c-2 -46 -9 -52 -60 -55 l-37 -3 1 50 0
49 49 0 50 0 -3 -41z m114 1 c-5 -42 0 -36 -39 -45 l-33 -7 0 47 0 46 38 -3
c36 -3 37 -4 34 -38z m158 30 c0 -13 -74 -50 -101 -50 -15 0 -19 4 -15 16 3 9
6 22 6 30 0 10 14 14 55 14 30 0 55 -4 55 -10z m-674 -101 c12 -4 24 -16 26
-27 7 -27 -20 -19 -63 19 -31 28 -32 29 -9 23 14 -4 35 -10 46 -15z m624 0
c-43 -34 -80 -51 -80 -37 0 22 14 34 50 45 52 16 58 15 30 -8z m-488 -53 c9
-38 6 -41 -29 -24 -16 8 -29 23 -31 36 -3 20 0 23 24 20 21 -2 30 -10 36 -32z
m357 5 c-7 -19 -19 -31 -35 -34 -21 -4 -24 0 -24 23 0 34 6 40 41 40 26 0 27
-2 18 -29z m-227 2 c11 -47 -15 -69 -42 -35 -46 55 -46 52 -2 52 29 0 41 -4
44 -17z m124 1 c-3 -9 -6 -24 -6 -35 0 -16 -7 -19 -40 -19 -37 0 -40 2 -38 28
2 40 5 42 50 42 32 0 39 -3 34 -16z m-317 -118 c18 -33 26 -55 19 -50 -74 56
-98 78 -126 117 l-33 46 54 -27 c46 -23 59 -36 86 -86z m550 92 c-18 -33 -93
-111 -127 -130 l-29 -17 30 57 c25 46 40 62 81 83 28 14 52 27 54 28 1 0 -3
-9 -9 -21z m-458 -111 c17 -48 17 -49 -1 -32 -11 10 -29 33 -40 52 l-20 34 22
-3 c16 -2 27 -16 39 -51z m290 36 c-5 -10 -21 -33 -35 -52 -26 -35 -33 -31
-17 11 5 13 12 31 15 41 3 9 15 17 26 17 17 0 19 -3 11 -17z m-193 -61 c2 -29
-1 -52 -7 -52 -11 0 -51 79 -51 102 0 13 6 15 28 9 24 -7 27 -12 30 -59z m103
55 c-2 -23 -14 -57 -21 -57 -7 0 -40 44 -40 54 0 5 40 14 53 12 5 -1 8 -5 8
-9z m-37 -98 c-10 -16 -24 -9 -24 12 0 18 2 19 15 9 8 -7 12 -16 9 -21z"/>
</g>
</svg>
