<svg xmlns="http://www.w3.org/2000/svg" width="18.564" height="23.238" viewBox="0 0 18.564 23.238"><defs><style>.a{fill:rgba(217,102,3,0.51);}</style></defs><path class="a" d="M16.224-1.4c2-1.586,3.2-4.264,3.2-8.19,0-6.864-3.77-9.958-9.152-9.958s-9.128,3.09-9.128,9.954C1.144-2.7,4.888.39,10.27.39a8.172,8.172,0,0,0,3.146-.6l4.108,3.9,2.184-2.184ZM10.27-16.926c2.6,0,5.07,1.9,5.07,7.358,0,5.434-2.47,7.332-5.07,7.332s-5.044-1.9-5.044-7.332c0-5.46,2.444-7.358,5.018-7.358Z" transform="translate(-1.144 19.548)"/></svg>